<?xml version="1.0" standalone="no"?>
<!DOCTYPE svg PUBLIC "-//W3C//DTD SVG 1.1//EN" "http://www.w3.org/Graphics/SVG/1.1/DTD/svg11.dtd" >
<svg xmlns="http://www.w3.org/2000/svg">
<metadata>
Created by FontForge 20120731 at Wed May  3 10:43:09 2017
 By admin
</metadata>
<defs>
<font id="jp-iconfont" horiz-adv-x="1024" >
  <font-face 
    font-family="jp-iconfont"
    font-weight="500"
    font-stretch="normal"
    units-per-em="1024"
    panose-1="2 0 6 3 0 0 0 0 0 0"
    ascent="896"
    descent="-128"
    x-height="792"
    bbox="0 -128 1024 896"
    underline-thickness="0"
    underline-position="0"
    unicode-range="U+0078-E657"
  />
<missing-glyph 
 />
    <glyph glyph-name=".notdef" 
 />
    <glyph glyph-name=".notdef" 
 />
    <glyph glyph-name=".null" horiz-adv-x="0" 
 />
    <glyph glyph-name="nonmarkingreturn" horiz-adv-x="341" 
 />
    <glyph glyph-name="x" unicode="x" horiz-adv-x="1001" 
d="M281 543q-27 -1 -53 -1h-83q-18 0 -36.5 -6t-32.5 -18.5t-23 -32t-9 -45.5v-76h912v41q0 16 -0.5 30t-0.5 18q0 13 -5 29t-17 29.5t-31.5 22.5t-49.5 9h-133v-97h-438v97zM955 310v-52q0 -23 0.5 -52t0.5 -58t-10.5 -47.5t-26 -30t-33 -16t-31.5 -4.5q-14 -1 -29.5 -0.5
t-29.5 0.5h-32l-45 128h-439l-44 -128h-29h-34q-20 0 -45 1q-25 0 -41 9.5t-25.5 23t-13.5 29.5t-4 30v167h911zM163 247q-12 0 -21 -8.5t-9 -21.5t9 -21.5t21 -8.5q13 0 22 8.5t9 21.5t-9 21.5t-22 8.5zM316 123q-8 -26 -14 -48q-5 -19 -10.5 -37t-7.5 -25t-3 -15t1 -14.5
t9.5 -10.5t21.5 -4h37h67h81h80h64h36q23 0 34 12t2 38q-5 13 -9.5 30.5t-9.5 34.5q-5 19 -11 39h-368zM336 498v228q0 11 2.5 23t10 21.5t20.5 15.5t34 6h188q31 0 51.5 -14.5t20.5 -52.5v-227h-327z" />
    <glyph glyph-name="logo1" unicode="&#xe605;" 
d="M511 833q-107 0 -198.5 -53t-144 -144t-52.5 -199v-501h328q-59 206 24 379q8 18 8.5 34t-2 25t-13.5 20l-12.5 12.5t-13.5 8.5q-6 5 -19 11.5t-60.5 22t-105.5 24.5q-2 0 -7 0.5t-16.5 3.5t-20.5 6t-16.5 8.5t-7.5 11.5q112 -3 140 4q4 1 13 3t13 3t12 3.5t13.5 5.5
t13.5 8.5t17 12.5q30 25 43.5 35.5t41.5 25.5t51 19q25 4 47.5 12t38.5 18.5t29.5 22t22.5 22.5t15 19.5t8 14.5l3 5q0 -5 -0.5 -12.5t-3 -29.5t-6.5 -41t-13.5 -39.5t-22.5 -31.5q4 2 11 6.5t27 26.5t38 54q0 -9 -0.5 -24t-9.5 -50.5t-27 -56.5q5 1 12 4.5t23 18t25 32.5
q-1 -5 -3.5 -13.5t-12 -33t-22 -46t-35.5 -45t-50 -36.5q-70 -40 8 -126q77 -84 110 -170q72 55 113.5 137t41.5 176q0 108 -53 199t-144 144t-199 53v0z" />
    <glyph glyph-name="heart" unicode="&#xe626;" 
d="M708 768q-97 0 -169 -70v0v0l-27 -34l-27 32v0v0v0q-74 72 -169 72q-105 0 -178.5 -72t-73.5 -174.5t74 -174.5l334 -331q17 -16 40 -16t40 16l334 331q74 72 74 174t-73.5 174.5t-178.5 72.5v0z" />
    <glyph glyph-name="share" unicode="&#xe62b;" 
d="M589 126q-2 -17 -2 -19q0 -71 55 -121.5t132.5 -50.5t132 50.5t54.5 122t-54.5 122t-132.5 50.5q-49 0 -90.5 -21.5t-66.5 -58.5l-201 106q21 38 21 78q0 23 -9 50l209 110q56 -56 137 -56q78 0 132.5 50.5t54.5 122t-54.5 122t-132 50.5t-132.5 -50.5t-55 -121.5
q0 -23 9 -50l-209 -110q-56 56 -137 56q-78 0 -132.5 -50.5t-54.5 -122.5t54.5 -122.5t132.5 -50.5q62 0 113 36z" />
    <glyph glyph-name="about" unicode="&#xe647;" 
d="M549 649q23 1 41 -17t18 -40q-1 -22 -17 -38.5t-38 -16.5q-23 -1 -39.5 13.5t-18.5 37.5q-2 24 14.5 42.5t39.5 18.5zM475 455q13 5 33 10q40 9 58 -8.5t10 -56.5q-6 -27 -19 -76t-18 -68q-5 -23 1 -38q20 -44 10.5 -64t-57.5 -30q-1 0 -21 -3q-30 -1 -44.5 17t-7.5 47
q9 39 35 133q11 39 -5 64q-15 25 -8 43.5t33 29.5zM1012 331q-10 -96 -55 -180q-9 -16 -12 -20q-30 -45 -67 -24q-35 20 -17 70q4 9 18 43.5t21.5 57t10.5 44.5q19 106 -17 203.5t-115.5 165.5t-186.5 91q-101 22 -200.5 -8.5t-172 -104.5t-99.5 -175q-33 -126 1 -233.5
t133 -189.5q196 -160 437 -51q5 2 17 9t18 9q39 16 61 -16q11 -16 7.5 -34t-21.5 -32q-15 -11 -45 -25q-81 -39 -168 -47.5t-165.5 11t-149.5 64t-122.5 106.5t-82.5 144t-31 172q0 106 41.5 202t111.5 164t166 106t200 33q109 -5 204.5 -52t160.5 -121.5t97.5 -174.5
t21.5 -207v0z" />
    <glyph glyph-name="all-btn" unicode="&#xe648;" 
d="M478 418h-347q-53 0 -90.5 37.5t-37.5 89.5v220q0 53 37.5 90.5t90.5 37.5h220q52 0 89.5 -37.5t37.5 -90.5v-347zM152 812q-27 0 -46 -19.5t-19 -46.5v-178q0 -28 19 -47t46 -19h243v244q0 27 -19 46.5t-46 19.5h-178zM893 418h-350v347q0 53 37.5 90.5t90.5 37.5h222
q53 0 90.5 -37.5t37.5 -90.5v-220q0 -52 -37.5 -89.5t-90.5 -37.5zM627 502h243q27 0 46.5 19t19.5 46v178q0 27 -19.5 46.5t-46.5 19.5h-178q-27 0 -46 -19.5t-19 -46.5v-243zM351 -125h-220q-53 0 -90.5 37.5t-37.5 90.5v222q0 53 37.5 90.5t90.5 37.5h347v-350
q0 -53 -37.5 -90.5t-89.5 -37.5zM153 269q-27 0 -46 -19.5t-19 -46.5v-178q0 -27 19 -46.5t46 -19.5h176q27 0 46 19.5t19 46.5v244h-241zM893 -125h-222q-53 0 -90.5 37.5t-37.5 90.5v350h350q53 0 90.5 -37.5t37.5 -90.5v-222q0 -53 -37.5 -90.5t-90.5 -37.5zM627 269
v-244q0 -27 19 -46.5t46 -19.5h178q27 0 46.5 19.5t19.5 46.5v178q0 27 -19.5 46.5t-46.5 19.5h-243z" />
    <glyph glyph-name="download" unicode="&#xe649;" 
d="M512 226q-33 0 -56 23l-220 221q-13 12 -13 30.5t12.5 31.5t31 13t31.5 -13l214 -214l214 214q13 13 31.5 13t31 -13t12.5 -31.5t-13 -30.5l-220 -221q-23 -23 -56 -23v0zM512 235q-18 0 -31 13t-13 31v560q0 19 13 32t31 13t31 -13t13 -32v-560q0 -18 -13 -31t-31 -13z
M185 -116q-76 0 -130 54t-54 131v514q0 76 54 130t130 54q18 0 31 -13t13 -31.5t-13 -31t-31 -12.5q-40 0 -68 -28.5t-28 -67.5v-514q0 -40 28 -68t68 -28h654q40 0 68 28t28 68v514q0 39 -28 67.5t-68 28.5q-18 0 -31 12.5t-13 31t13 31.5t31 13q76 0 130 -54t54 -130v-514
q0 -77 -54 -131t-130 -54h-654z" />
    <glyph glyph-name="feedback" unicode="&#xe64a;" 
d="M671 352h-318q-13 0 -22 -9t-9 -22.5t9 -22.5t22 -9h318q13 0 22 9t9 22.5t-9 22.5t-22 9zM512 892q-103 0 -197 -35.5t-162 -95t-108.5 -141.5t-40.5 -173q0 -103 51 -193.5t140 -152.5v-225l222 135q49 -8 95 -8q103 0 197 35.5t162 95t108.5 141.5t40.5 172.5
t-40.5 172.5t-108.5 141.5t-162 95t-197 35.5zM512 67q-53 0 -107 11l-150 -90l2 148q-87 52 -138 134t-51 177q0 104 59.5 191.5t161.5 138.5t223 51t223 -51t161.5 -138.5t59.5 -191t-59.5 -191t-161.5 -138.5t-223 -51zM734 543h-444q-13 0 -22.5 -9.5t-9.5 -22.5
t9.5 -22.5t22.5 -9.5h444q13 0 22.5 9.5t9.5 22.5t-9.5 22.5t-22.5 9.5v0z" />
    <glyph glyph-name="preschool-btn" unicode="&#xe64b;" 
d="M568 808q-24 3 -49 3q-118 0 -219 -56t-161.5 -154.5t-63.5 -215.5q-29 -14 -50 -51.5t-21 -77.5q0 -57 46.5 -102.5t87.5 -45.5v0q57 -109 156.5 -166.5t224.5 -57.5q116 0 225 66.5t153 153.5l-18 -1q59 1 100 44.5t41 104.5q0 71 -57 119q-3 132 -85 249q-7 11 -20 13
t-23 -6t-12 -21.5t5 -23.5q71 -103 73 -229v-19l16 -9q19 -11 30 -30.5t11 -42.5q0 -35 -23.5 -59.5t-56.5 -24.5h-18l-8 -17q-51 -93 -140 -147.5t-193 -54.5q-106 0 -196 56t-140 151l-10 18l-20 -1q-3 -1 -6 -1v0q-34 0 -57.5 25t-23.5 59q0 26 14 47.5t37 30.5l19 8v21
q4 105 56 193t138.5 139t188.5 51q21 0 42 -2q13 -2 23 6.5t11.5 22t-6.5 24t-21 11.5zM725 223l-6 -12q-32 -58 -87.5 -91.5t-119.5 -33.5q-68 0 -125.5 37t-87.5 100q-6 12 -18 16t-23.5 -2t-15.5 -18.5t1 -24.5q38 -79 110.5 -126t158.5 -47q81 0 151 42.5t110 115.5
q4 7 8 15q5 12 1 24.5t-15.5 18.5t-23.5 2t-18 -16zM660 819q34 -1 58 -25q25 -26 25.5 -62.5t-24.5 -63t-60 -26.5t-60 26q-9 9 -22 9t-22 -9.5t-9 -23t9 -22.5q43 -45 104 -44.5t104 45.5t42.5 108.5t-43.5 108.5q-42 43 -101 44q-13 0 -22 -9t-9.5 -22.5t8.5 -23.5
t22 -10zM744 411q18 -19 18 -46t-18 -46t-44 -19t-44 19t-18 46t18 46t44 19q25 0 44 -19zM373 411q18 -19 18 -46t-18 -46t-44 -19t-44 19t-18 46t18 46t44 19t44 -19v0z" />
    <glyph glyph-name="option" unicode="&#xe64c;" 
d="M888 259q52 0 88.5 36.5t36.5 88.5t-36.5 88.5t-88.5 36.5h-22q-6 19 -15 37l15 15q37 37 37 89t-36.5 88.5t-88.5 36.5t-89 -37l-15 -15q-18 9 -37 15v22q0 52 -36.5 88.5t-88.5 36.5t-88.5 -36.5t-36.5 -88.5v-22q-19 -6 -37 -15l-15 15q-37 37 -89 37t-88.5 -36.5
t-36.5 -88.5t37 -89l15 -15q-9 -18 -15 -37h-22q-52 0 -88.5 -36.5t-36.5 -88.5t36.5 -88.5t88.5 -36.5h22q6 -19 15 -37l-15 -15q-37 -37 -37 -89t36.5 -88.5t88.5 -36.5t89 37l15 15q18 -9 37 -15v-22q0 -52 36.5 -88.5t88.5 -36.5t88.5 36.5t36.5 88.5v22q19 6 37 15
l15 -15q37 -37 89 -37t88.5 36.5t36.5 88.5t-37 89l-15 15q9 18 15 37h22zM822 162q18 -18 18 -44t-18 -44q-17 -18 -44 -18t-44 18l-49 48l-20 -11q-32 -18 -68 -28l-22 -7v-68q0 -26 -18.5 -44.5t-44.5 -18.5t-44.5 18.5t-18.5 44.5v68l-22 7q-36 10 -68 28l-20 11
l-49 -48q-17 -18 -44 -18t-44 18q-18 18 -18 44t18 44l48 49l-12 20q-17 32 -27 68l-7 22h-68q-26 0 -44.5 18.5t-18.5 44.5t18.5 44.5t44.5 18.5h68l7 22q10 36 27 68l12 20l-48 49q-18 18 -18 44t18 44q17 18 44 18t44 -18l49 -48l20 12q32 17 68 27l22 7v68
q0 26 18.5 44.5t44.5 18.5t44.5 -18.5t18.5 -44.5v-68l22 -7q36 -10 68 -28l20 -11l49 48q17 18 44 18t44 -18q18 -18 18 -44t-18 -44l-48 -49l11 -20q18 -32 28 -68l7 -22h68q26 0 44.5 -18.5t18.5 -44.5t-18.5 -44.5t-44.5 -18.5h-68l-7 -22q-10 -36 -28 -68l-11 -20z
M512 572q-78 0 -133 -55t-55 -133t55 -133t133 -55t133 55t55 133t-55 133t-133 55zM512 259q-52 0 -88.5 36.5t-36.5 88.5t36.5 88.5t88.5 36.5t88.5 -36.5t36.5 -88.5t-36.5 -88.5t-88.5 -36.5v0z" />
    <glyph glyph-name="junior-btn" unicode="&#xe64d;" 
d="M512.5 896q89.5 0 164 -35.5t124 -96.5t79.5 -138.5t38 -165.5q23 -18 39 -51.5t16 -62.5q0 -56 -36 -97q-12 -13 -33 -26.5t-38 -17.5q-54 -96 -142 -151q-3 -1 -8 -4t-7 -5v-151q0 -9 -6.5 -15.5t-15.5 -6.5q-4 0 -11 4l-74 45q-14 -19 -36 -19h-107q-23 0 -37 19
l-74 -45q-6 -4 -11 -4q-9 0 -15 6.5t-6 15.5v151q-4 3 -15 9q-89 56 -142 151q-44 12 -72 44q-36 41 -36 97q0 70 55 114q8 88 38 165.5t80 138.5t124.5 96.5t164 35.5zM666 24q-23 -10 -55 -19v-38l55 -34v91zM413 -33v38q-32 9 -55 19v-91zM569 -3q-26 -4 -57 -4t-56 4
v-48q0 -1 1 -2t2 -1h107q1 0 2 1t1 2v48zM393 368q15 0 25 -10.5t10 -24.5v-1q0 -14 -10 -24.5t-25 -10.5v0v0q-15 0 -25 10.5t-10 24.5v1q0 14 10 24.5t25 10.5zM632 368q14 0 24.5 -10.5t10.5 -24.5v-1q0 -14 -10.5 -24.5t-24.5 -10.5q-15 0 -25.5 10t-10.5 26v0
q0 14 10.5 24.5t25.5 10.5zM381 173q-8 5 -9.5 13.5t3 16t13 9.5t15.5 -2q25 -16 53 -24q27 -9 56 -9q30 0 57 9q28 8 52 24q5 3 11 3q3 0 5 -1q9 -1 13 -9q5 -8 3 -16.5t-9 -13.5q-32 -20 -64 -28q-34 -11 -68 -11t-68 11q-32 9 -63 28zM849 434q-192 -40 -301 14
q-42 21 -76 53.5t-70 80.5q-16 -69 -73 -108q-59 -38 -155 -42q-3 -15 -16 -23q-15 -9 -25.5 -27.5t-10.5 -35.5v0q0 -28 19 -49q18 -22 45 -25v0q19 -2 27 -19q44 -87 125 -138q79 -50 174 -50q94 0 174 50t124 135q8 20 28 22q27 3 46 25q18 21 18 49q0 42 -36 63
q-14 9 -17 25zM179 475q82 6 127 35q60 40 60 130q0 10 9 17q5 4 12 4h4q8 -2 13 -9q33 -46 51.5 -70t49 -52t61.5 -43q97 -48 279 -11q-9 72 -34 133.5t-65.5 110t-100.5 76.5t-132.5 28t-133 -28.5t-101 -77t-65.5 -110.5t-34 -133v0z" />
    <glyph glyph-name="eval-tab" unicode="&#xe64e;" 
d="M636 726q5 -10 12.5 -17.5t18.5 -7.5h148v16q0 6 -2 14t-10.5 19.5t-24.5 28t-44 40.5q-25 23 -41.5 36.5t-28 21t-19.5 9.5t-17 2h-2v-124q0 -7 2.5 -17.5t7.5 -20.5zM625 132v0h-378q-26 0 -44.5 18.5t-18.5 44.5t18.5 44.5t44.5 18.5h378q26 0 44.5 -18.5t18.5 -44.5
q0 -19 -11 -35l138 143v333h-147q-28 0 -48.5 12.5t-33 31.5t-18.5 41t-6 41v126h-386q-23 0 -44 -12.5t-37.5 -31t-26.5 -42t-10 -44.5v-686q0 -25 13.5 -49t33 -42t42 -29t41.5 -11h278l196 204q-15 -13 -37 -13zM202.5 491.5q18.5 18.5 44.5 18.5h378q26 0 44.5 -18.5
t18.5 -44.5t-18.5 -44.5t-44.5 -18.5h-378q-26 0 -44.5 18.5t-18.5 44.5t18.5 44.5zM961 226h1q-7 14 -18.5 26.5t-21.5 17.5q-9 5 -23 7t-26 -10q-5 -4 -12.5 -11t-13.5 -12l85 -84q3 2 7 6q3 3 7 7.5t9 9.5q11 11 10 23t-4 20zM716 114q-19 -18 -37 -36q-18 -19 -33 -34
l-38 -38v0q-10 -11 -16 -24q-2 -4 -6 -15q-4 -12 -7 -23q-4 -13 -7 -25t-4 -18q-2 -12 2 -17t16 -3q6 1 18 4t25 7t25.5 8.5t18.5 7.5t12 7q6 5 12 9q1 1 10.5 11t23.5 24l167 167l-85 85q-54 -53 -97 -97v0z" />
    <glyph glyph-name="primary-btn" unicode="&#xe64f;" 
d="M508.5 -96q-116.5 0 -215.5 62t-156.5 168.5t-57.5 232t57.5 232t156.5 168.5t215.5 62t215.5 -62t156.5 -168.5t57.5 -232t-57.5 -232t-156.5 -168.5t-215.5 -62zM508 771q-101 0 -186.5 -54t-135.5 -147.5t-50 -203t50 -203t135.5 -147.5t186.5 -54t187 54t135.5 147.5
t49.5 203t-49.5 203t-135.5 147.5t-187 54zM112 407q-11 0 -19 7.5t-9 18.5q-1 12 6.5 21t19.5 10q60 6 112.5 21.5t88.5 34.5t67 43t48.5 44t31 41t17.5 29.5t6 14.5q5 11 15.5 16t21.5 1t16 -15t1 -22q-2 -7 -6.5 -16.5t-20.5 -34.5t-35.5 -48t-54.5 -51.5t-76 -50.5
t-100 -40t-127 -24h-3zM904 407h-3q-53 5 -101 17q-12 3 -18 13t-3 22t13 18t22 3q44 -11 93 -16q12 -1 19.5 -10t6.5 -21q-1 -11 -9.5 -18.5t-19.5 -7.5zM679 473v0q-7 0 -14 4q-39 22 -72 50t-52 50.5t-34 46.5t-19.5 33t-6.5 15q-4 11 1 22t16 15t22 -1t15 -16
q2 -4 5.5 -12t16.5 -28t29.5 -39t45 -43t61.5 -43q11 -6 14 -17.5t-3 -21.5q-8 -15 -25 -15zM354 302q0 -15 -11 -26t-26 -11t-25.5 11t-10.5 26t10.5 25.5t25.5 10.5t26 -10.5t11 -25.5zM317 237q-27 0 -46 19t-19 46t19 46t46 19t46 -19t19 -46t-19 -46t-46 -19z
M317.5 309q-7.5 0 -7.5 -7q0 -4 3.5 -6t7.5 0t4 6q0 7 -7.5 7zM752 302q0 -15 -10.5 -26t-26 -11t-26 11t-10.5 26t10.5 25.5t26 10.5t26 -10.5t10.5 -25.5zM715.5 237q-26.5 0 -46 19t-19.5 46t19.5 46t46 19t46 -19t19.5 -46t-19.5 -46t-46 -19zM715.5 309q-7.5 0 -7.5 -7
q0 -4 4 -6t7.5 0t3.5 6q0 7 -7.5 7zM516.5 25q-49.5 0 -89.5 25.5t-55 67.5q-4 11 1 22t16 15t21.5 -1t15.5 -16q9 -24 34.5 -40t56.5 -16t56.5 16t34.5 40q4 11 15 16t22 1t16 -15t1 -22q-16 -42 -56 -67.5t-89.5 -25.5zM111 246q-37 0 -74 24.5t-37 59.5v50q0 35 37 59.5
t74 24.5q12 0 20 -8.5t8 -19.5v-161q0 -12 -8 -20.5t-20 -8.5zM82 399q-23 -10 -24 -19v-50q1 -8 24 -19v88zM913 246q-12 0 -20 8.5t-8 20.5v161q0 11 8 19.5t20 8.5q37 0 74 -24.5t37 -59.5v-50q0 -35 -37 -59.5t-74 -24.5zM942 399v-88q23 11 24 19v50q-1 9 -24 19z
M188 630h-1l-152 8q-10 1 -17.5 7t-9.5 16q-1 4 -2 11t-1.5 25t2 34.5t10.5 38t21 38.5q45 56 140 56q13 0 28 -2q11 0 19 -9.5t7 -21.5l-15 -174q-1 -12 -9 -19.5t-20 -7.5zM62 694l100 -5l10 117q-62 -1 -89 -34q-23 -29 -21 -78zM806 630q-11 0 -19 7.5t-9 19.5l-15 174
q-1 12 6.5 21.5t19.5 9.5q14 2 28 2q94 0 139 -56q14 -17 22 -38.5t10.5 -38t2 -34.5t-1.5 -25t-2 -11q-2 -10 -9.5 -16t-17.5 -7l-152 -8h-2zM823 806l10 -117l100 5q2 49 -21 78q-27 33 -89 34v0z" />
    <glyph glyph-name="rec-tab" unicode="&#xe650;" 
d="M8 -79h209v587h-209v-587zM680 537v223q-3 56 -47.5 92t-99.5 36q-57 0 -102 -37t-45 -97v-121l-77 -125h-7v-84h59l108 187v143q0 49 65 49q30 0 52.5 -10.5t25.5 -32.5h-1l-26 -307l331 -53l-128 -437h-243l-215 63l-29 -8v-96h20l213 -41l342 -1l140 594z" />
    <glyph glyph-name="store-tab" unicode="&#xe651;" 
d="M676 16q-3 12 -12.5 19t-20.5 7h-74v125q-29 -5 -57 -5t-57 5v-125h-74q-11 0 -20.5 -7t-12.5 -19l-26 -94q-5 -16 5.5 -30t27.5 -14h314q14 0 24 10.5t10 24.5q0 7 -2 13zM864 761q-15 4 -29 4v0q-7 0 -14 -1v93q0 14 -9.5 23.5t-22.5 9.5h-554q-13 0 -22.5 -9.5
t-9.5 -23.5v-93q-7 1 -14 1q-14 0 -29 -4q-57 -15 -83.5 -78t-6.5 -136q17 -64 61 -104.5t95 -40.5q3 0 10 1q3 -8 8 -16q1 -2 1 -3q6 -11 13 -22q1 -2 2 -2q7 -12 15 -22v0q17 -21 37 -40v0v0q9 -9 20 -17q0 -1 0.5 -1h0.5q44 -34 95 -50h1q13 -4 26 -6v0q14 -3 28 -5v0
q15 -1 29 -1t28 1h1q14 2 28 5v0q13 2 26 6h1q51 16 95 50v0l1 1q10 7 20 17v0q20 18 37 40v0q8 10 15 22l2 2q7 11 13 22q1 2 1 3q4 7 8 16q7 -1 10 -1q51 0 95 40.5t61 104.5q20 73 -6.5 136t-83.5 78zM123 561q-13 51 2 94.5t50 52.5q7 2 14 2q6 0 14 -2v-154
q0 -13 1 -28v-4q1 -12 3 -26l0.5 -2l0.5 -2q2 -14 5 -25q0 -1 1 -4t1 -5q-29 5 -55 34t-37 69zM681 624l-92 -69l34 -109v-3q0 -6 -4 -9q-3 -2 -6.5 -2t-5.5 2l-95 65l-95 -65q-6 -4 -12 0q-4 3 -4 9v3l34 109l-92 69q-6 5 -4 12t10 7l115 3l38 108q3 7 10 7t10 -7l38 -108
l115 -3q7 0 9.5 -7t-3.5 -12zM901 561q-11 -40 -37 -69t-55 -34q0 3 1 5q0 3 1 4q3 12 5 25q0 1 1 4q2 14 3 26v4q1 15 1 28v154q8 2 14 2q7 0 14 -2q35 -9 50 -52.5t2 -94.5v0z" />
    <glyph glyph-name="senior-btn" unicode="&#xe652;" 
d="M622 230q90 15 150.5 85.5t60.5 163.5v29h-2q42 39 42 96v101l48 12q11 1 20 8t12 18q4 14 -3.5 26.5t-21.5 16.5l-410 108q-6 2 -12 2v0v0q-6 0 -12 -2l-405 -107h-1v0q-9 -1 -16 -5v0l-0.5 -0.5l-0.5 -0.5q-1 0 -1 -1v0v0q-1 0 -1 -1h-1q-8 -7 -11 -18v0v0v-2v0l-1 -1
v-1v-1v0v-2v0v-2v0l1 -288q0 -14 10.5 -24.5t24.5 -10.5t24.5 10.5t10.5 24.5l-1 243l24 -6v-97q0 -32 15 -60.5t41 -46.5v-18q0 -91 58.5 -160.5t145.5 -87.5q-129 -16 -228 -101.5t-135 -209.5q-4 -15 -4 -16q0 -13 9 -22.5t22 -9.5q23 0 31 32q46 119 153 194t239 75h30
q131 0 237.5 -74.5t153.5 -193.5q12 -32 37 -31q14 1 21 9t5 21q-31 127 -129.5 217t-229.5 109zM504 680l-275 72l277 73l275 -72zM492 611q6 -2 12 -2v0v0q6 0 12 2l292 77v-69q0 -31 -22 -53t-53 -22h-443q-31 0 -53 22t-22 53v65zM265 475q8 -1 16 -1h462q8 0 17 1
q-7 -83 -68.5 -140t-145.5 -57h-66q-84 0 -145.5 57t-69.5 140zM359 403q0 -15 10.5 -25t25 -10t25 10t10.5 25t-10.5 25.5t-25 10.5t-25 -10.5t-10.5 -25.5zM588 403q0 -15 10.5 -25t25.5 -10t25.5 10t10.5 25t-10.5 25.5t-25.5 10.5t-25.5 -10.5t-10.5 -25.5v0z" />
    <glyph glyph-name="store-icon" unicode="&#xe653;" 
d="M358 890h128q50 0 50 -50v-912q0 -50 -50 -50h-128q-50 0 -50 50v912q0 50 50 50zM384 855q-17 0 -29.5 -12.5t-12.5 -30.5t12.5 -30.5t29.5 -12.5h76q18 0 30.5 12.5t12.5 30.5t-12.5 30.5t-30.5 12.5h-76zM723 717q48 15 63 -32l224 -692q15 -48 -33 -63l-121 -40
q-47 -15 -63 33l-224 692q-15 47 33 63zM612 631q-8 -16 -2.5 -33t21.5 -25t32 -2l72 23q17 6 25 21q8 16 2.5 33t-21.5 25q-15 8 -32 2l-72 -23q-17 -5 -25 -21zM56.5 657.5q-12.5 -12.5 -12.5 -30t12.5 -30t30.5 -12.5h75q18 0 30.5 12.5t12.5 30t-12.5 30t-30.5 12.5h-75
q-18 0 -30.5 -12.5zM188 706q50 0 50 -50v-728q0 -50 -50 -50h-127q-51 0 -51 50v728q0 50 51 50h127z" />
    <glyph glyph-name="store-icon1" unicode="&#xe654;" 
d="M19.5 144q14.5 14 34.5 14h129q20 0 34.5 -14t14.5 -34.5t-14.5 -34.5t-34.5 -14h-129q-20 0 -34.5 14t-14.5 34.5t14.5 34.5zM232 384q0 -20 -14.5 -34.5t-34.5 -14.5h-129q-20 0 -34.5 14.5t-14.5 34.5t14.5 34t34.5 14h129q20 0 34.5 -14t14.5 -34zM720 707h-163
l-239 -651h151l48 149h237l48 -149h152zM633 595h4q3 -36 10 -57l74 -226h-174l75 228q8 26 11 55zM54 707h129q20 0 34.5 -14.5t14.5 -34.5t-14.5 -34t-34.5 -14h-129q-20 0 -34.5 14t-14.5 34t14.5 34.5t34.5 14.5zM952 852q28 0 47.5 -14t19.5 -34v-840q0 -20 -19.5 -34
t-47.5 -14h-801q-20 0 -34.5 14t-14.5 34v49h81q20 0 38 7q17 8 30.5 21t21.5 31q7 18 7 37.5t-7 37.5q-8 18 -21.5 31t-30.5 21q-18 7 -38 7h-81v81h81q20 0 38 8q17 7 30.5 20.5t21.5 30.5q7 18 7 38t-7 38q-8 17 -21.5 30.5t-30.5 20.5q-18 8 -38 8h-81v80h81q20 0 38 8
q17 7 30.5 20.5t21.5 31.5q7 18 7 37.5t-7 37.5q-8 17 -21.5 30.5t-30.5 21.5q-18 7 -38 7h-81v49q0 20 14.5 34t34.5 14h517v0h284z" />
    <glyph glyph-name="store-icon2" unicode="&#xe655;" 
d="M932 720v-756h-714q-52 0 -89 37t-37 89t37 89t89 37h630v672h-672q-69 0 -118.5 -49.5t-49.5 -118.5v-672q0 -69 49.5 -118.5t118.5 -49.5h840v840h-84zM260 132h588v-84h-588v84z" />
    <glyph glyph-name="store-icon3" unicode="&#xe656;" 
d="M156 492q-7 -15 -6 -26q-1 -1 -1 -1.5t1 -1.5q0 -12 2 -18q1 -5 3 -12l45 15l-3 12q-2 9 0 14q1 5 4 9t11 8q8 3 17 -1q8 -4 11 -13q1 -8 0 -16q-2 -8 -11 -24l-15 -22q-7 -11 -14 -25q-7 -13 -10 -24q-4 -11 -5 -21q-1 -9 2 -18q2 -8 5 -16l140 40l-9 37l-91 -28l8 16
q2 6 18 27q15 22 23 33q6 12 10 24q4 16 -1 34q-6 19 -18 27q-13 9 -23 12q-10 4 -22 3h-3h-1q-11 -1 -22 -5q-12 -4 -24 -13q-13 -9 -21 -26zM563 473l-9 34l-68 -18l-18 69l-34 -9l18 -68l-69 -18l9 -35l69 18l17 -68l35 9l-18 68zM721 700q-3 0 -6 -1h-3t-5 -1
q-16 -2 -33 -9q-19 -6 -39 -21q-20 -13 -32 -38q-11 -21 -11 -36v-4q1 -16 3 -25q1 -7 4 -16l69 22l-4 17q-3 13 0 20q4 7 8 13q4 5 18 11q12 6 26 0q13 -5 16 -18q2 -11 0 -23q-3 -11 -20 -34l-23 -32q-12 -15 -23 -34q-12 -18 -18 -33q-7 -16 -8 -29t2 -24q2 -10 6 -22
l229 54l-12 52l-151 -39l12 22q5 9 31 38q27 32 40 48q13 18 19 36q7 22 0 49q-8 28 -28 38q-20 11 -36 15q-10 3 -20 3q-2 1 -4.5 1t-4.5 -1q-1 1 -2 1zM1012 106l-1 -3q-12 -48 -53 -82q-40 -31 -85 -31h-722q-45 0 -85 31q-41 34 -53 82l-1 3h1000zM956 757
q21 -20 21 -50v-541h-105v39h-269v-39h-553v541q0 30 21 50q20 21 50 21h785q30 0 50 -21v0z" />
    <glyph glyph-name="store-icon4" unicode="&#xe657;" 
d="M843 567q17 23 39 8l118 -84q22 -16 5 -39l-41 -58l-162 114zM319 158.5q-7 7.5 -18 7.5t-18 -7.5t-7 -18t7 -18t18 -7.5t18 7.5t7 18t-7 18zM190.5 122.5q7.5 7.5 7.5 18t-7.5 18t-18 7.5t-18 -7.5t-7.5 -18t7.5 -18t18 -7.5t18 7.5zM52 304v-46h463l28 46h-491zM52 589
v-47h652l21 47h-673zM190.5 439.5q-7.5 7.5 -18 7.5t-18 -7.5t-7.5 -18t7.5 -18t18 -7.5t18 7.5t7.5 18t-7.5 18zM190.5 721.5q-7.5 7.5 -18 7.5t-18 -7.5t-7.5 -18t7.5 -18t18 -7.5t18 7.5t7.5 18t-7.5 18zM276 421.5q0 -10.5 7 -18t18 -7.5t18 7.5t7 18t-7 18t-18 7.5
t-18 -7.5t-7 -18zM319 721.5q-7 7.5 -18 7.5t-18 -7.5t-7 -18t7 -18t18 -7.5t18 7.5t7 18t-7 18zM757.5 831q25.5 -25 25.5 -61v-156l-304 -453l-34 -174h-347q-36 0 -61 25.5t-25 61.5v696q0 36 25 61t61 25h599q35 0 60.5 -25zM833 399l-197 -289l26 -18l197 289l67 -47
l-215 -316l-185 -104q-14 -8 -14 7l36 220l212 310zM540 -8q25 -14 37 -31l118 69l-130 98z" />
  </font>
</defs>
</svg>
